<svg width="65" height="65" viewBox="0 0 65 65" fill="none" xmlns="http://www.w3.org/2000/svg">
<path d="M29.4861 45.5694H34.8472V34.8472H45.5695V29.4861H34.8472V18.7639H29.4861V29.4861H18.7639V34.8472H29.4861V45.5694ZM32.1667 58.9722C28.4586 58.9722 24.9738 58.2797 21.7125 56.8948C18.4512 55.4651 15.6142 53.5441 13.2017 51.1316C10.7892 48.7191 8.86818 45.8821 7.43855 42.6208C6.05359 39.3595 5.36111 35.8747 5.36111 32.1666C5.36111 28.4585 6.05359 24.9738 7.43855 21.7125C8.86818 18.4511 10.7892 15.6142 13.2017 13.2017C15.6142 10.7892 18.4512 8.89048 21.7125 7.50553C24.9738 6.0759 28.4586 5.36108 32.1667 5.36108C35.8748 5.36108 39.3595 6.0759 42.6208 7.50553C45.8822 8.89048 48.7191 10.7892 51.1316 13.2017C53.5441 15.6142 55.4428 18.4511 56.8278 21.7125C58.2574 24.9738 58.9722 28.4585 58.9722 32.1666C58.9722 35.8747 58.2574 39.3595 56.8278 42.6208C55.4428 45.8821 53.5441 48.7191 51.1316 51.1316C48.7191 53.5441 45.8822 55.4651 42.6208 56.8948C39.3595 58.2797 35.8748 58.9722 32.1667 58.9722ZM32.1667 53.6111C38.1532 53.6111 43.224 51.5337 47.3788 47.3788C51.5337 43.2239 53.6111 38.1532 53.6111 32.1666C53.6111 26.1801 51.5337 21.1093 47.3788 16.9545C43.224 12.7996 38.1532 10.7222 32.1667 10.7222C26.1801 10.7222 21.1094 12.7996 16.9545 16.9545C12.7997 21.1093 10.7222 26.1801 10.7222 32.1666C10.7222 38.1532 12.7997 43.2239 16.9545 47.3788C21.1094 51.5337 26.1801 53.6111 32.1667 53.6111Z" fill="#34C759"/>
</svg>
