<svg width="21" height="20" viewBox="0 0 21 20" fill="none" xmlns="http://www.w3.org/2000/svg">
<path d="M10.5 15C10.7833 15 11.0208 14.9042 11.2125 14.7125C11.4042 14.5208 11.5 14.2833 11.5 14C11.5 13.7167 11.4042 13.4792 11.2125 13.2875C11.0208 13.0958 10.7833 13 10.5 13C10.2167 13 9.97917 13.0958 9.7875 13.2875C9.59583 13.4792 9.5 13.7167 9.5 14C9.5 14.2833 9.59583 14.5208 9.7875 14.7125C9.97917 14.9042 10.2167 15 10.5 15ZM9.5 11H11.5V5H9.5V11ZM10.5 20C9.11667 20 7.81667 19.7375 6.6 19.2125C5.38333 18.6875 4.325 17.975 3.425 17.075C2.525 16.175 1.8125 15.1167 1.2875 13.9C0.7625 12.6833 0.5 11.3833 0.5 10C0.5 8.61667 0.7625 7.31667 1.2875 6.1C1.8125 4.88333 2.525 3.825 3.425 2.925C4.325 2.025 5.38333 1.3125 6.6 0.7875C7.81667 0.2625 9.11667 0 10.5 0C11.8833 0 13.1833 0.2625 14.4 0.7875C15.6167 1.3125 16.675 2.025 17.575 2.925C18.475 3.825 19.1875 4.88333 19.7125 6.1C20.2375 7.31667 20.5 8.61667 20.5 10C20.5 11.3833 20.2375 12.6833 19.7125 13.9C19.1875 15.1167 18.475 16.175 17.575 17.075C16.675 17.975 15.6167 18.6875 14.4 19.2125C13.1833 19.7375 11.8833 20 10.5 20Z" fill="#65558F"/>
</svg>
