<svg width="65" height="65" viewBox="0 0 65 65" fill="none" xmlns="http://www.w3.org/2000/svg">
<path d="M29.4861 10.7222H10.7222C9.30037 10.7222 7.93675 11.287 6.93135 12.2924C5.92594 13.2978 5.36111 14.6615 5.36111 16.0833V53.6111C5.36111 55.033 5.92594 56.3966 6.93135 57.402C7.93675 58.4074 9.30037 58.9722 10.7222 58.9722H48.25C49.6719 58.9722 51.0355 58.4074 52.0409 57.402C53.0463 56.3966 53.6111 55.033 53.6111 53.6111V34.8472M49.5903 6.70137C50.6567 5.63498 52.103 5.03589 53.6111 5.03589C55.1192 5.03589 56.5656 5.63498 57.632 6.70137C58.6983 7.76776 59.2974 9.2141 59.2974 10.7222C59.2974 12.2303 58.6983 13.6766 57.632 14.743L32.1667 40.2083L21.4444 42.8889L24.125 32.1667L49.5903 6.70137Z" stroke="#21005D" stroke-width="4" stroke-linecap="round" stroke-linejoin="round"/>
</svg>
