<svg width="25" height="20" viewBox="0 0 25 20" fill="none" xmlns="http://www.w3.org/2000/svg">
<path d="M10.09 2.58998C10.3223 2.3563 10.6088 2.18363 10.9239 2.08732C11.239 1.99102 11.573 1.97407 11.8963 2.03797C12.2195 2.10188 12.522 2.24466 12.7768 2.45363C13.0315 2.66259 13.2307 2.93127 13.3566 3.23578C13.4825 3.54028 13.5313 3.87117 13.4985 4.19905C13.4657 4.52692 13.3524 4.84161 13.1687 5.11514C12.9849 5.38868 12.7365 5.61258 12.4454 5.76695C12.1542 5.92132 11.8295 6.00137 11.5 5.99998H2.5M13.09 17.41C13.3223 17.6437 13.6088 17.8163 13.9239 17.9126C14.239 18.0089 14.573 18.0259 14.8963 17.962C15.2195 17.8981 15.522 17.7553 15.7768 17.5463C16.0315 17.3374 16.2307 17.0687 16.3566 16.7642C16.4825 16.4597 16.5313 16.1288 16.4985 15.8009C16.4657 15.473 16.3524 15.1584 16.1687 14.8848C15.9849 14.6113 15.7365 14.3874 15.4454 14.233C15.1542 14.0786 14.8295 13.9986 14.5 14H2.5M18.23 5.72998C18.5208 5.43987 18.8787 5.2259 19.2719 5.10699C19.6652 4.98809 20.0816 4.96792 20.4845 5.04827C20.8874 5.12861 21.2642 5.307 21.5817 5.56765C21.8993 5.8283 22.1477 6.16318 22.305 6.54267C22.4623 6.92217 22.5236 7.33458 22.4836 7.74343C22.4436 8.15228 22.3035 8.54498 22.0756 8.88678C21.8477 9.22859 21.5391 9.50897 21.1771 9.70313C20.8151 9.89729 20.4108 9.99925 20 9.99998H2.5" stroke="#1E1E1E" stroke-width="4" stroke-linecap="round" stroke-linejoin="round"/>
</svg>
