<svg width="65" height="65" viewBox="0 0 65 65" fill="none" xmlns="http://www.w3.org/2000/svg">
<path d="M8.04166 16.0833H13.4028M13.4028 16.0833H56.2917M13.4028 16.0833V53.6111C13.4028 55.0329 13.9676 56.3966 14.973 57.402C15.9784 58.4074 17.342 58.9722 18.7639 58.9722H45.5694C46.9913 58.9722 48.3549 58.4074 49.3603 57.402C50.3657 56.3966 50.9305 55.0329 50.9305 53.6111V16.0833M21.4444 16.0833V10.7222C21.4444 9.30034 22.0093 7.93672 23.0147 6.93132C24.0201 5.92591 25.3837 5.36108 26.8055 5.36108H37.5278C38.9496 5.36108 40.3132 5.92591 41.3186 6.93132C42.324 7.93672 42.8889 9.30034 42.8889 10.7222V16.0833M26.8055 29.4861V45.5694M37.5278 29.4861V45.5694" stroke="#FF3B30" stroke-width="4" stroke-linecap="round" stroke-linejoin="round"/>
</svg>
